 <svg  version="1.0" xmlns="http://www.w3.org/2000/svg"  width="225.000000pt" height="225.000000pt" viewBox="0 0 225.000000 225.000000"  preserveAspectRatio="xMidYMid meet">  <g transform="translate(0.000000,225.000000) scale(0.050000,-0.050000)" fill="#565656" stroke="none"> <path d="M1970 3967 c-1317 -281 -1823 -1898 -902 -2882 1069 -1143 2979 -383 2979 1185 0 1110 -1000 1927 -2077 1697z m739 -187 c1126 -288 1559 -1641 811 -2536 l-123 -146 -133 74 c-74 41 -158 91 -187 111 -29 20 -71 37 -94 37 -89 0 -141 37 -162 115 -11 42 -34 94 -50 116 -42 56 -38 101 18 183 27 40 60 115 73 168 19 71 36 98 66 102 73 11 127 274 95 463 -14 83 -23 209 -21 280 4 128 -64 428 -111 491 -153 205 -625 326 -858 220 -90 -41 -61 -52 162 -64 319 -16 362 -34 520 -223 73 -87 77 -104 37 -149 -51 -59 -61 -196 -15 -211 39 -12 73 -67 54 -86 -5 -6 -43 10 -83 34 -173 101 -300 7 -295 -218 4 -151 -45 -237 -114 -200 -39 20 -99 6 -99 -23 0 -10 20 -18 44 -18 24 0 64 -19 89 -43 45 -42 247 -80 247 -46 0 8 -15 64 -34 123 -40 126 -32 137 110 153 125 13 153 -18 90 -103 -21 -30 -59 -97 -84 -149 l-46 -95 53 -63 c87 -103 35 -187 -55 -89 -89 95 -301 159 -402 120 -61 -24 -31 -43 88 -56 140 -16 155 -43 35 -63 -161 -26 -215 -89 -77 -89 74 0 80 -4 105 -85 26 -82 30 -85 107 -82 153 5 155 -251 3 -391 -28 -26 -47 -56 -41 -65 26 -42 92 -9 174 85 l89 102 24 -101 c23 -94 21 -106 -26 -187 -51 -86 -51 -88 -25 -263 31 -209 44 -196 -213 -200 l-184 -3 -18 110 c-21 135 -41 161 -110 148 -54 -11 -163 52 -163 93 0 27 68 23 96 -5 17 -17 24 -18 24 -1 0 33 -82 85 -134 85 -32 0 -46 -12 -46 -39 0 -21 -10 -45 -22 -52 -28 -17 -57 26 -58 84 0 30 -17 47 -55 56 -71 18 -125 67 -125 115 0 31 7 34 39 17 62 -33 75 -23 23 17 l-48 37 56 27 c72 35 84 71 30 88 -28 9 -71 -6 -136 -47 -52 -34 -178 -98 -280 -143 l-185 -83 -39 47 c-69 82 -41 134 30 56 46 -51 69 -51 56 -1 -17 65 -60 90 -114 66 -137 -63 -356 623 -320 1001 92 966 1014 1630 1937 1394z m-1123 -2667 c125 -133 135 -164 63 -197 -55 -25 -129 5 -224 90 -62 56 -56 91 20 124 86 38 90 37 141 -17z m1470 -47 c46 -30 84 -69 84 -87 0 -44 -188 -145 -240 -129 -55 18 -59 217 -5 248 52 31 69 27 161 -32z m-976 -145 c0 -10 -18 -32 -41 -47 -34 -24 -36 -31 -10 -41 61 -23 39 -119 -24 -104 -223 54 -233 61 -172 121 22 22 52 30 87 23 37 -7 63 1 86 28 36 41 74 52 74 20z m130 -171 c0 -27 -16 -42 -47 -47 -65 -9 -97 26 -63 67 37 44 110 31 110 -20z"/> <path d="M2033 2785 c-7 -12 3 -27 22 -34 27 -10 15 -22 -50 -51 -120 -54 -110 -89 25 -94 267 -9 368 157 113 187 -58 7 -103 4 -110 -8z"/> <path d="M1774 2088 c-24 -25 59 -193 130 -262 41 -40 80 -69 85 -64 19 19 -39 208 -64 211 -14 1 -43 3 -65 5 -28 1 -40 16 -40 51 0 48 -24 80 -46 59z"/> <path d="M2046 2031 c-38 -34 -46 -50 -25 -50 37 -1 119 54 119 80 0 33 -36 21 -94 -30z"/> <path d="M1511 1542 c-6 -10 -6 -32 0 -48 16 -40 -54 -64 -81 -27 -18 25 -31 25 -86 2 -69 -29 -70 -78 -2 -100 68 -21 92 16 27 45 -56 26 -54 26 44 15 86 -10 114 -5 175 34 78 51 95 88 32 71 -22 -6 -45 -2 -51 8 -15 23 -43 23 -58 0z"/> <path d="M1827 1320 c13 -63 31 -100 49 -100 18 0 25 14 19 38 -8 31 4 27 77 -24 49 -34 88 -69 88 -77 0 -9 14 -11 30 -4 22 8 42 -15 71 -81 50 -112 79 -118 79 -17 0 53 -11 81 -37 95 -143 75 -204 116 -286 188 -116 102 -114 103 -90 -18z"/> </g> </svg> 